<mxfile host="65bd71144e">
    <diagram id="FFJJ7vYpV9TbGx-IhugV" name="Страница 1">
        <mxGraphModel dx="1548" dy="628" grid="1" gridSize="10" guides="1" tooltips="1" connect="1" arrows="1" fold="1" page="1" pageScale="1" pageWidth="827" pageHeight="1169" math="0" shadow="0">
            <root>
                <mxCell id="0"/>
                <mxCell id="1" parent="0"/>
                <mxCell id="rGy74gRU72N-6EAPcVKt-3" value="Состояния кабины лифта" style="text;html=1;strokeColor=none;fillColor=none;align=left;verticalAlign=middle;whiteSpace=wrap;rounded=0;fontStyle=4" parent="1" vertex="1">
                    <mxGeometry x="40" y="450" width="200" height="20" as="geometry"/>
                </mxCell>
                <mxCell id="rGy74gRU72N-6EAPcVKt-4" value="Состояния дверей кабины" style="text;html=1;strokeColor=none;fillColor=none;align=left;verticalAlign=middle;whiteSpace=wrap;rounded=0;fontStyle=4" parent="1" vertex="1">
                    <mxGeometry x="40.00000000000003" y="620" width="200.03" height="20" as="geometry"/>
                </mxCell>
                <mxCell id="rGy74gRU72N-6EAPcVKt-15" value="Состояния кнопки контроллера" style="text;html=1;strokeColor=none;fillColor=none;align=left;verticalAlign=middle;whiteSpace=wrap;rounded=0;fontStyle=4" parent="1" vertex="1">
                    <mxGeometry x="414.03" y="450" width="200.03" height="20" as="geometry"/>
                </mxCell>
                <mxCell id="ytYb5CN6HiQMM8bSOuHx-4" value="КЛ2: Запуск(Id кл)" style="edgeStyle=orthogonalEdgeStyle;curved=1;orthogonalLoop=1;jettySize=auto;html=1;" parent="1" source="ytYb5CN6HiQMM8bSOuHx-1" target="5jym0ZMFD4PkC4suiMIN-1" edge="1">
                    <mxGeometry relative="1" as="geometry">
                        <Array as="points">
                            <mxPoint x="40" y="520"/>
                        </Array>
                    </mxGeometry>
                </mxCell>
                <mxCell id="ytYb5CN6HiQMM8bSOuHx-1" value="1. Остановлена" style="rounded=0;whiteSpace=wrap;html=1;" parent="1" vertex="1">
                    <mxGeometry x="160.02" y="510" width="120" height="20" as="geometry"/>
                </mxCell>
                <mxCell id="ytYb5CN6HiQMM8bSOuHx-3" value="КЛ1: Остановка(Id кл, этаж)" style="edgeStyle=orthogonalEdgeStyle;orthogonalLoop=1;jettySize=auto;html=1;curved=1;" parent="1" source="ytYb5CN6HiQMM8bSOuHx-2" target="ytYb5CN6HiQMM8bSOuHx-1" edge="1">
                    <mxGeometry relative="1" as="geometry">
                        <Array as="points">
                            <mxPoint x="300.02" y="580"/>
                            <mxPoint x="300.02" y="520"/>
                        </Array>
                    </mxGeometry>
                </mxCell>
                <mxCell id="ytYb5CN6HiQMM8bSOuHx-2" value="2. Движется" style="rounded=0;whiteSpace=wrap;html=1;" parent="1" vertex="1">
                    <mxGeometry x="160.02" y="570" width="120" height="20" as="geometry"/>
                </mxCell>
                <mxCell id="ytYb5CN6HiQMM8bSOuHx-5" value="Информационная модель прикладной подсистемы" style="text;html=1;strokeColor=none;fillColor=none;align=left;verticalAlign=middle;whiteSpace=wrap;rounded=0;fontStyle=5;fontSize=14;" parent="1" vertex="1">
                    <mxGeometry x="39.97" y="20" width="400.03" height="20" as="geometry"/>
                </mxCell>
                <mxCell id="ytYb5CN6HiQMM8bSOuHx-6" value="2. Кабина лифта (КЛ)" style="swimlane;childLayout=stackLayout;horizontal=1;startSize=30;horizontalStack=0;rounded=1;fontSize=14;fontStyle=0;strokeWidth=1;resizeParent=0;resizeLast=1;shadow=0;dashed=0;align=center;" parent="1" vertex="1">
                    <mxGeometry x="339.97" y="80" width="220" height="120" as="geometry"/>
                </mxCell>
                <mxCell id="ytYb5CN6HiQMM8bSOuHx-7" value="* Id кабины лифта&#10;- текущий этаж&#10;- направление движения&#10;- статус (движется/остановлена)" style="align=left;strokeColor=none;fillColor=none;spacingLeft=4;fontSize=12;verticalAlign=top;resizable=0;rotatable=0;part=1;" parent="ytYb5CN6HiQMM8bSOuHx-6" vertex="1">
                    <mxGeometry y="30" width="220" height="90" as="geometry"/>
                </mxCell>
                <mxCell id="ytYb5CN6HiQMM8bSOuHx-17" value="R1" style="edgeStyle=orthogonalEdgeStyle;curved=1;orthogonalLoop=1;jettySize=auto;html=1;fontSize=14;endArrow=ERone;endFill=0;endSize=15;startArrow=ERone;startFill=0;startSize=15;" parent="1" source="ytYb5CN6HiQMM8bSOuHx-8" target="ytYb5CN6HiQMM8bSOuHx-6" edge="1">
                    <mxGeometry relative="1" as="geometry">
                        <mxPoint as="offset"/>
                    </mxGeometry>
                </mxCell>
                <mxCell id="ytYb5CN6HiQMM8bSOuHx-18" style="edgeStyle=orthogonalEdgeStyle;curved=1;orthogonalLoop=1;jettySize=auto;html=1;fontSize=14;startArrow=ERone;startFill=0;endArrow=ERone;endFill=0;startSize=15;endSize=15;" parent="1" source="ytYb5CN6HiQMM8bSOuHx-8" target="ytYb5CN6HiQMM8bSOuHx-11" edge="1">
                    <mxGeometry relative="1" as="geometry">
                        <Array as="points">
                            <mxPoint x="299.97" y="170"/>
                            <mxPoint x="299.97" y="310"/>
                        </Array>
                    </mxGeometry>
                </mxCell>
                <mxCell id="ytYb5CN6HiQMM8bSOuHx-20" value="R2" style="edgeLabel;html=1;align=center;verticalAlign=middle;resizable=0;points=[];fontSize=14;" parent="ytYb5CN6HiQMM8bSOuHx-18" vertex="1" connectable="0">
                    <mxGeometry x="0.1966" y="-1" relative="1" as="geometry">
                        <mxPoint x="1" y="-21" as="offset"/>
                    </mxGeometry>
                </mxCell>
                <mxCell id="ytYb5CN6HiQMM8bSOuHx-8" value="1. Контроллер (К)" style="swimlane;childLayout=stackLayout;horizontal=1;startSize=30;horizontalStack=0;rounded=1;fontSize=14;fontStyle=0;strokeWidth=1;resizeParent=0;resizeLast=1;shadow=0;dashed=0;align=center;" parent="1" vertex="1">
                    <mxGeometry x="39.97" y="80" width="220" height="120" as="geometry"/>
                </mxCell>
                <mxCell id="ytYb5CN6HiQMM8bSOuHx-9" value="* Id контроллера&#10;- Id кабины лифта (R1)&#10;- Id дверей кабины (R2)&#10;- статус (ожидает/занят)" style="align=left;strokeColor=none;fillColor=none;spacingLeft=4;fontSize=12;verticalAlign=top;resizable=0;rotatable=0;part=1;" parent="ytYb5CN6HiQMM8bSOuHx-8" vertex="1">
                    <mxGeometry y="30" width="220" height="90" as="geometry"/>
                </mxCell>
                <mxCell id="ytYb5CN6HiQMM8bSOuHx-11" value="3. Двери кабины (ДК)" style="swimlane;childLayout=stackLayout;horizontal=1;startSize=30;horizontalStack=0;rounded=1;fontSize=14;fontStyle=0;strokeWidth=1;resizeParent=0;resizeLast=1;shadow=0;dashed=0;align=center;" parent="1" vertex="1">
                    <mxGeometry x="338.97" y="280" width="221" height="120" as="geometry"/>
                </mxCell>
                <mxCell id="ytYb5CN6HiQMM8bSOuHx-12" value="* Id дверей кабины&#10;- статус (открыты/открываются/&#10;закрыты/закрываются)" style="align=left;strokeColor=none;fillColor=none;spacingLeft=4;fontSize=12;verticalAlign=top;resizable=0;rotatable=0;part=1;" parent="ytYb5CN6HiQMM8bSOuHx-11" vertex="1">
                    <mxGeometry y="30" width="221" height="90" as="geometry"/>
                </mxCell>
                <mxCell id="ytYb5CN6HiQMM8bSOuHx-19" style="edgeStyle=orthogonalEdgeStyle;curved=1;orthogonalLoop=1;jettySize=auto;html=1;fontSize=14;startArrow=ERmandOne;startFill=0;endArrow=ERone;endFill=0;startSize=15;endSize=15;" parent="1" source="ytYb5CN6HiQMM8bSOuHx-15" target="ytYb5CN6HiQMM8bSOuHx-8" edge="1">
                    <mxGeometry relative="1" as="geometry"/>
                </mxCell>
                <mxCell id="ytYb5CN6HiQMM8bSOuHx-21" value="R3" style="edgeLabel;html=1;align=center;verticalAlign=middle;resizable=0;points=[];fontSize=14;" parent="ytYb5CN6HiQMM8bSOuHx-19" vertex="1" connectable="0">
                    <mxGeometry x="0.2828" relative="1" as="geometry">
                        <mxPoint y="11" as="offset"/>
                    </mxGeometry>
                </mxCell>
                <mxCell id="ytYb5CN6HiQMM8bSOuHx-15" value="4. Кнопка контроллера (КК)" style="swimlane;childLayout=stackLayout;horizontal=1;startSize=30;horizontalStack=0;rounded=1;fontSize=14;fontStyle=0;strokeWidth=1;resizeParent=0;resizeLast=1;shadow=0;dashed=0;align=center;" parent="1" vertex="1">
                    <mxGeometry x="39.97" y="280" width="220" height="120" as="geometry"/>
                </mxCell>
                <mxCell id="ytYb5CN6HiQMM8bSOuHx-16" value="* Id кнопки контроллера&#10;- Id контроллера (R3)&#10;- номер этажа&#10;- статус (нажата/отпущена)" style="align=left;strokeColor=none;fillColor=none;spacingLeft=4;fontSize=12;verticalAlign=top;resizable=0;rotatable=0;part=1;" parent="ytYb5CN6HiQMM8bSOuHx-15" vertex="1">
                    <mxGeometry y="30" width="220" height="90" as="geometry"/>
                </mxCell>
                <mxCell id="E6nvMdB4aJgWT5wThZRG-4" value="КК1: Отпустить кнопку(Id кк)" style="edgeStyle=orthogonalEdgeStyle;curved=1;orthogonalLoop=1;jettySize=auto;html=1;" parent="1" source="E6nvMdB4aJgWT5wThZRG-1" target="E6nvMdB4aJgWT5wThZRG-2" edge="1">
                    <mxGeometry relative="1" as="geometry">
                        <Array as="points">
                            <mxPoint x="500.05999999999995" y="520"/>
                            <mxPoint x="500.05999999999995" y="580"/>
                        </Array>
                    </mxGeometry>
                </mxCell>
                <mxCell id="E6nvMdB4aJgWT5wThZRG-1" value="1. Нажата" style="rounded=0;whiteSpace=wrap;html=1;" parent="1" vertex="1">
                    <mxGeometry x="520.04" y="510" width="120" height="20" as="geometry"/>
                </mxCell>
                <mxCell id="E6nvMdB4aJgWT5wThZRG-3" value="КК2: Нажать кнопку(Id кк)" style="edgeStyle=orthogonalEdgeStyle;orthogonalLoop=1;jettySize=auto;html=1;curved=1;" parent="1" source="E6nvMdB4aJgWT5wThZRG-2" target="E6nvMdB4aJgWT5wThZRG-1" edge="1">
                    <mxGeometry relative="1" as="geometry">
                        <Array as="points">
                            <mxPoint x="660.06" y="580"/>
                            <mxPoint x="660.06" y="520"/>
                        </Array>
                    </mxGeometry>
                </mxCell>
                <mxCell id="E6nvMdB4aJgWT5wThZRG-2" value="2. Отпущена" style="rounded=0;whiteSpace=wrap;html=1;" parent="1" vertex="1">
                    <mxGeometry x="520.04" y="570" width="120" height="20" as="geometry"/>
                </mxCell>
                <mxCell id="E6nvMdB4aJgWT5wThZRG-9" style="edgeStyle=orthogonalEdgeStyle;curved=1;orthogonalLoop=1;jettySize=auto;html=1;entryX=0.5;entryY=0;entryDx=0;entryDy=0;exitX=0;exitY=0.5;exitDx=0;exitDy=0;" parent="1" source="E6nvMdB4aJgWT5wThZRG-5" target="E6nvMdB4aJgWT5wThZRG-6" edge="1">
                    <mxGeometry relative="1" as="geometry"/>
                </mxCell>
                <mxCell id="W7GcJJfSbcKXSyQRW5s8-4" value="ДК1: Открыть двери(Id дк)" style="edgeLabel;html=1;align=center;verticalAlign=middle;resizable=0;points=[];" parent="E6nvMdB4aJgWT5wThZRG-9" vertex="1" connectable="0">
                    <mxGeometry x="0.4179" y="13" relative="1" as="geometry">
                        <mxPoint x="-3" y="2" as="offset"/>
                    </mxGeometry>
                </mxCell>
                <mxCell id="E6nvMdB4aJgWT5wThZRG-5" value="1. Закрыты" style="rounded=0;whiteSpace=wrap;html=1;" parent="1" vertex="1">
                    <mxGeometry x="160.00000000000003" y="660" width="120" height="20" as="geometry"/>
                </mxCell>
                <mxCell id="E6nvMdB4aJgWT5wThZRG-10" style="edgeStyle=orthogonalEdgeStyle;curved=1;orthogonalLoop=1;jettySize=auto;html=1;entryX=0;entryY=0.5;entryDx=0;entryDy=0;" parent="1" source="E6nvMdB4aJgWT5wThZRG-6" target="E6nvMdB4aJgWT5wThZRG-8" edge="1">
                    <mxGeometry relative="1" as="geometry"/>
                </mxCell>
                <mxCell id="W7GcJJfSbcKXSyQRW5s8-5" value="ДК2: Завершить открытие дверей(Id дк)" style="edgeLabel;html=1;align=center;verticalAlign=middle;resizable=0;points=[];" parent="E6nvMdB4aJgWT5wThZRG-10" vertex="1" connectable="0">
                    <mxGeometry x="0.2185" y="11" relative="1" as="geometry">
                        <mxPoint x="3" y="-19" as="offset"/>
                    </mxGeometry>
                </mxCell>
                <mxCell id="E6nvMdB4aJgWT5wThZRG-6" value="2. Открываются" style="rounded=0;whiteSpace=wrap;html=1;" parent="1" vertex="1">
                    <mxGeometry x="40.00000000000003" y="720" width="120" height="20" as="geometry"/>
                </mxCell>
                <mxCell id="E6nvMdB4aJgWT5wThZRG-12" style="edgeStyle=orthogonalEdgeStyle;curved=1;orthogonalLoop=1;jettySize=auto;html=1;entryX=1;entryY=0.5;entryDx=0;entryDy=0;" parent="1" source="E6nvMdB4aJgWT5wThZRG-7" target="E6nvMdB4aJgWT5wThZRG-5" edge="1">
                    <mxGeometry relative="1" as="geometry"/>
                </mxCell>
                <mxCell id="W7GcJJfSbcKXSyQRW5s8-7" value="ДК4: Завершить закрытие дверей(Id дк)" style="edgeLabel;html=1;align=center;verticalAlign=middle;resizable=0;points=[];" parent="E6nvMdB4aJgWT5wThZRG-12" vertex="1" connectable="0">
                    <mxGeometry x="0.2178" y="8" relative="1" as="geometry">
                        <mxPoint x="7" y="22" as="offset"/>
                    </mxGeometry>
                </mxCell>
                <mxCell id="W7GcJJfSbcKXSyQRW5s8-23" style="edgeStyle=orthogonalEdgeStyle;rounded=0;orthogonalLoop=1;jettySize=auto;html=1;" parent="1" source="E6nvMdB4aJgWT5wThZRG-7" target="E6nvMdB4aJgWT5wThZRG-6" edge="1">
                    <mxGeometry relative="1" as="geometry"/>
                </mxCell>
                <mxCell id="W7GcJJfSbcKXSyQRW5s8-24" value="ДК1" style="edgeLabel;html=1;align=center;verticalAlign=middle;resizable=0;points=[];" parent="W7GcJJfSbcKXSyQRW5s8-23" vertex="1" connectable="0">
                    <mxGeometry x="-0.1606" y="1" relative="1" as="geometry">
                        <mxPoint x="-10" y="-1" as="offset"/>
                    </mxGeometry>
                </mxCell>
                <mxCell id="E6nvMdB4aJgWT5wThZRG-7" value="4. Закрываются" style="rounded=0;whiteSpace=wrap;html=1;" parent="1" vertex="1">
                    <mxGeometry x="280.03" y="720" width="120" height="20" as="geometry"/>
                </mxCell>
                <mxCell id="E6nvMdB4aJgWT5wThZRG-11" style="edgeStyle=orthogonalEdgeStyle;curved=1;orthogonalLoop=1;jettySize=auto;html=1;exitX=1;exitY=0.5;exitDx=0;exitDy=0;" parent="1" source="E6nvMdB4aJgWT5wThZRG-8" target="E6nvMdB4aJgWT5wThZRG-7" edge="1">
                    <mxGeometry relative="1" as="geometry"/>
                </mxCell>
                <mxCell id="W7GcJJfSbcKXSyQRW5s8-6" value="ДК3: Закрыть двери(Id дк)" style="edgeLabel;html=1;align=center;verticalAlign=middle;resizable=0;points=[];" parent="E6nvMdB4aJgWT5wThZRG-11" vertex="1" connectable="0">
                    <mxGeometry x="0.3638" y="13" relative="1" as="geometry">
                        <mxPoint x="3" y="-15" as="offset"/>
                    </mxGeometry>
                </mxCell>
                <mxCell id="E6nvMdB4aJgWT5wThZRG-8" value="3. Открыты" style="rounded=0;whiteSpace=wrap;html=1;" parent="1" vertex="1">
                    <mxGeometry x="160.00000000000003" y="780" width="120" height="20" as="geometry"/>
                </mxCell>
                <mxCell id="W7GcJJfSbcKXSyQRW5s8-1" value="1" style="rounded=0;whiteSpace=wrap;html=1;fillColor=none;" parent="1" vertex="1">
                    <mxGeometry x="470" y="710" width="40" height="20" as="geometry"/>
                </mxCell>
                <mxCell id="W7GcJJfSbcKXSyQRW5s8-2" value="ТПС" style="text;html=1;strokeColor=none;fillColor=none;align=left;verticalAlign=middle;whiteSpace=wrap;rounded=0;fontStyle=4" parent="1" vertex="1">
                    <mxGeometry x="470" y="650" width="200" height="20" as="geometry"/>
                </mxCell>
                <mxCell id="W7GcJJfSbcKXSyQRW5s8-8" value="2" style="rounded=0;whiteSpace=wrap;html=1;fillColor=none;" parent="1" vertex="1">
                    <mxGeometry x="470" y="730" width="40" height="20" as="geometry"/>
                </mxCell>
                <mxCell id="W7GcJJfSbcKXSyQRW5s8-9" value="3" style="rounded=0;whiteSpace=wrap;html=1;fillColor=none;" parent="1" vertex="1">
                    <mxGeometry x="470" y="750" width="40" height="20" as="geometry"/>
                </mxCell>
                <mxCell id="W7GcJJfSbcKXSyQRW5s8-10" value="4" style="rounded=0;whiteSpace=wrap;html=1;fillColor=none;" parent="1" vertex="1">
                    <mxGeometry x="470" y="770" width="40" height="20" as="geometry"/>
                </mxCell>
                <mxCell id="W7GcJJfSbcKXSyQRW5s8-11" value="Закрыты" style="rounded=0;whiteSpace=wrap;html=1;fillColor=none;" parent="1" vertex="1">
                    <mxGeometry x="510" y="710" width="80" height="20" as="geometry"/>
                </mxCell>
                <mxCell id="W7GcJJfSbcKXSyQRW5s8-12" value="Открываются" style="rounded=0;whiteSpace=wrap;html=1;fillColor=none;" parent="1" vertex="1">
                    <mxGeometry x="510" y="730" width="80" height="20" as="geometry"/>
                </mxCell>
                <mxCell id="W7GcJJfSbcKXSyQRW5s8-13" value="Открыты" style="rounded=0;whiteSpace=wrap;html=1;fillColor=none;" parent="1" vertex="1">
                    <mxGeometry x="510" y="750" width="80" height="20" as="geometry"/>
                </mxCell>
                <mxCell id="W7GcJJfSbcKXSyQRW5s8-14" value="Закрываются" style="rounded=0;whiteSpace=wrap;html=1;fillColor=none;" parent="1" vertex="1">
                    <mxGeometry x="510" y="770" width="80" height="20" as="geometry"/>
                </mxCell>
                <mxCell id="W7GcJJfSbcKXSyQRW5s8-15" value="ДК1" style="rounded=0;whiteSpace=wrap;html=1;fillColor=none;" parent="1" vertex="1">
                    <mxGeometry x="590" y="690" width="40" height="20" as="geometry"/>
                </mxCell>
                <mxCell id="W7GcJJfSbcKXSyQRW5s8-16" value="ДК2" style="rounded=0;whiteSpace=wrap;html=1;fillColor=none;" parent="1" vertex="1">
                    <mxGeometry x="630" y="690" width="40" height="20" as="geometry"/>
                </mxCell>
                <mxCell id="W7GcJJfSbcKXSyQRW5s8-17" value="ДК3" style="rounded=0;whiteSpace=wrap;html=1;fillColor=none;" parent="1" vertex="1">
                    <mxGeometry x="670" y="690" width="40" height="20" as="geometry"/>
                </mxCell>
                <mxCell id="W7GcJJfSbcKXSyQRW5s8-18" value="ДК4" style="rounded=0;whiteSpace=wrap;html=1;fillColor=none;" parent="1" vertex="1">
                    <mxGeometry x="710" y="690" width="40" height="20" as="geometry"/>
                </mxCell>
                <mxCell id="W7GcJJfSbcKXSyQRW5s8-19" value="2" style="rounded=0;whiteSpace=wrap;html=1;fillColor=none;" parent="1" vertex="1">
                    <mxGeometry x="590" y="710" width="40" height="20" as="geometry"/>
                </mxCell>
                <mxCell id="W7GcJJfSbcKXSyQRW5s8-20" value="-" style="rounded=0;whiteSpace=wrap;html=1;fillColor=none;" parent="1" vertex="1">
                    <mxGeometry x="590" y="730" width="40" height="20" as="geometry"/>
                </mxCell>
                <mxCell id="W7GcJJfSbcKXSyQRW5s8-21" value="-" style="rounded=0;whiteSpace=wrap;html=1;fillColor=none;" parent="1" vertex="1">
                    <mxGeometry x="590" y="750" width="40" height="20" as="geometry"/>
                </mxCell>
                <mxCell id="W7GcJJfSbcKXSyQRW5s8-22" value="2" style="rounded=0;whiteSpace=wrap;html=1;fillColor=none;" parent="1" vertex="1">
                    <mxGeometry x="590" y="770" width="40" height="20" as="geometry"/>
                </mxCell>
                <mxCell id="W7GcJJfSbcKXSyQRW5s8-26" value="3" style="rounded=0;whiteSpace=wrap;html=1;fillColor=none;" parent="1" vertex="1">
                    <mxGeometry x="630" y="730" width="40" height="20" as="geometry"/>
                </mxCell>
                <mxCell id="W7GcJJfSbcKXSyQRW5s8-27" value="-" style="rounded=0;whiteSpace=wrap;html=1;fillColor=none;" parent="1" vertex="1">
                    <mxGeometry x="630" y="710" width="40" height="20" as="geometry"/>
                </mxCell>
                <mxCell id="W7GcJJfSbcKXSyQRW5s8-28" value="-" style="rounded=0;whiteSpace=wrap;html=1;fillColor=none;" parent="1" vertex="1">
                    <mxGeometry x="630" y="750" width="40" height="20" as="geometry"/>
                </mxCell>
                <mxCell id="W7GcJJfSbcKXSyQRW5s8-29" value="-" style="rounded=0;whiteSpace=wrap;html=1;fillColor=none;" parent="1" vertex="1">
                    <mxGeometry x="630" y="770" width="40" height="20" as="geometry"/>
                </mxCell>
                <mxCell id="W7GcJJfSbcKXSyQRW5s8-30" value="4" style="rounded=0;whiteSpace=wrap;html=1;fillColor=none;" parent="1" vertex="1">
                    <mxGeometry x="670" y="750" width="40" height="20" as="geometry"/>
                </mxCell>
                <mxCell id="W7GcJJfSbcKXSyQRW5s8-31" value="-" style="rounded=0;whiteSpace=wrap;html=1;fillColor=none;" parent="1" vertex="1">
                    <mxGeometry x="670" y="730" width="40" height="20" as="geometry"/>
                </mxCell>
                <mxCell id="W7GcJJfSbcKXSyQRW5s8-32" value="-" style="rounded=0;whiteSpace=wrap;html=1;fillColor=none;" parent="1" vertex="1">
                    <mxGeometry x="670" y="710" width="40" height="20" as="geometry"/>
                </mxCell>
                <mxCell id="W7GcJJfSbcKXSyQRW5s8-33" value="-" style="rounded=0;whiteSpace=wrap;html=1;fillColor=none;" parent="1" vertex="1">
                    <mxGeometry x="670" y="770" width="40" height="20" as="geometry"/>
                </mxCell>
                <mxCell id="W7GcJJfSbcKXSyQRW5s8-34" value="1" style="rounded=0;whiteSpace=wrap;html=1;fillColor=none;" parent="1" vertex="1">
                    <mxGeometry x="710" y="770" width="40" height="20" as="geometry"/>
                </mxCell>
                <mxCell id="W7GcJJfSbcKXSyQRW5s8-35" value="-" style="rounded=0;whiteSpace=wrap;html=1;fillColor=none;" parent="1" vertex="1">
                    <mxGeometry x="710" y="750" width="40" height="20" as="geometry"/>
                </mxCell>
                <mxCell id="W7GcJJfSbcKXSyQRW5s8-36" value="-" style="rounded=0;whiteSpace=wrap;html=1;fillColor=none;" parent="1" vertex="1">
                    <mxGeometry x="710" y="730" width="40" height="20" as="geometry"/>
                </mxCell>
                <mxCell id="W7GcJJfSbcKXSyQRW5s8-37" value="-" style="rounded=0;whiteSpace=wrap;html=1;fillColor=none;" parent="1" vertex="1">
                    <mxGeometry x="710" y="710" width="40" height="20" as="geometry"/>
                </mxCell>
                <mxCell id="ydrPqTwcOS3lQjm-XeVe-1" value="Состояния контроллера" style="text;html=1;strokeColor=none;fillColor=none;align=left;verticalAlign=middle;whiteSpace=wrap;rounded=0;fontStyle=4" parent="1" vertex="1">
                    <mxGeometry x="40.00000000000003" y="820" width="200.03" height="20" as="geometry"/>
                </mxCell>
                <mxCell id="IUg-mft-xapzD2BrvqNs-9" value="K5" style="edgeStyle=orthogonalEdgeStyle;orthogonalLoop=1;jettySize=auto;html=1;curved=1;" parent="1" source="1RubFFUEzhwFRpHru7SJ-1" target="HDxr8kiUH-6mZuYNT8Sr-1" edge="1">
                    <mxGeometry x="0.4359" y="10" relative="1" as="geometry">
                        <Array as="points">
                            <mxPoint x="-70" y="1170"/>
                        </Array>
                        <mxPoint as="offset"/>
                    </mxGeometry>
                </mxCell>
                <mxCell id="1RubFFUEzhwFRpHru7SJ-1" value="4.&amp;nbsp; Лифт в движении" style="rounded=0;whiteSpace=wrap;html=1;" parent="1" vertex="1">
                    <mxGeometry x="-190" y="1030" width="150" height="40" as="geometry"/>
                </mxCell>
                <mxCell id="IUg-mft-xapzD2BrvqNs-6" value="К6" style="edgeStyle=orthogonalEdgeStyle;orthogonalLoop=1;jettySize=auto;html=1;curved=1;" parent="1" source="1RubFFUEzhwFRpHru7SJ-27" target="1RubFFUEzhwFRpHru7SJ-29" edge="1">
                    <mxGeometry x="-0.6923" relative="1" as="geometry">
                        <Array as="points">
                            <mxPoint x="340" y="970"/>
                        </Array>
                        <mxPoint as="offset"/>
                    </mxGeometry>
                </mxCell>
                <mxCell id="1RubFFUEzhwFRpHru7SJ-27" value="3. Ожидание пассажиров" style="rounded=0;whiteSpace=wrap;html=1;" parent="1" vertex="1">
                    <mxGeometry x="119.99999999999997" y="960" width="150" height="35" as="geometry"/>
                </mxCell>
                <mxCell id="1RubFFUEzhwFRpHru7SJ-29" value="4. Двери закрываются" style="rounded=0;whiteSpace=wrap;html=1;" parent="1" vertex="1">
                    <mxGeometry x="265.03" y="1030" width="150" height="40" as="geometry"/>
                </mxCell>
                <mxCell id="1RubFFUEzhwFRpHru7SJ-33" value="К1: Нажатие кнопки контроллера" style="text;html=1;strokeColor=none;fillColor=none;align=left;verticalAlign=middle;whiteSpace=wrap;rounded=0;fontSize=14;" parent="1" vertex="1">
                    <mxGeometry x="479.9" y="900" width="280" height="20" as="geometry"/>
                </mxCell>
                <mxCell id="1RubFFUEzhwFRpHru7SJ-34" value="К2: Переход в неактивное состояние" style="text;html=1;strokeColor=none;fillColor=none;align=left;verticalAlign=middle;whiteSpace=wrap;rounded=0;fontSize=14;" parent="1" vertex="1">
                    <mxGeometry x="480.03" y="920" width="280" height="20" as="geometry"/>
                </mxCell>
                <mxCell id="1RubFFUEzhwFRpHru7SJ-40" value="К3: Двери открылись" style="text;html=1;strokeColor=none;fillColor=none;align=left;verticalAlign=middle;whiteSpace=wrap;rounded=0;fontSize=14;" parent="1" vertex="1">
                    <mxGeometry x="479.9" y="940" width="280" height="20" as="geometry"/>
                </mxCell>
                <mxCell id="qX_3Gwqr9Lo_Wm2yeuOw-2" value="К4: Начало движения лифта" style="text;html=1;strokeColor=none;fillColor=none;align=left;verticalAlign=middle;whiteSpace=wrap;rounded=0;fontSize=14;" parent="1" vertex="1">
                    <mxGeometry x="480.03" y="960" width="280" height="20" as="geometry"/>
                </mxCell>
                <mxCell id="IUg-mft-xapzD2BrvqNs-8" value="K3" style="edgeStyle=orthogonalEdgeStyle;orthogonalLoop=1;jettySize=auto;html=1;curved=1;exitX=1;exitY=0.25;exitDx=0;exitDy=0;" parent="1" source="HDxr8kiUH-6mZuYNT8Sr-1" target="1RubFFUEzhwFRpHru7SJ-27" edge="1">
                    <mxGeometry x="-0.1496" y="15" relative="1" as="geometry">
                        <Array as="points">
                            <mxPoint x="210" y="1160"/>
                        </Array>
                        <mxPoint as="offset"/>
                    </mxGeometry>
                </mxCell>
                <mxCell id="HDxr8kiUH-6mZuYNT8Sr-1" value="2. Двери открываются" style="rounded=0;whiteSpace=wrap;html=1;" parent="1" vertex="1">
                    <mxGeometry x="25" y="1150" width="150" height="40" as="geometry"/>
                </mxCell>
                <mxCell id="IUg-mft-xapzD2BrvqNs-10" value="K5: Начать открытие дверей" style="text;html=1;strokeColor=none;fillColor=none;align=left;verticalAlign=middle;whiteSpace=wrap;rounded=0;fontSize=14;" parent="1" vertex="1">
                    <mxGeometry x="479.9" y="980" width="280" height="20" as="geometry"/>
                </mxCell>
                <mxCell id="IUg-mft-xapzD2BrvqNs-12" value="К6: Начать закрытие дверей" style="text;html=1;strokeColor=none;fillColor=none;align=left;verticalAlign=middle;whiteSpace=wrap;rounded=0;fontSize=14;" parent="1" vertex="1">
                    <mxGeometry x="479.9" y="1000" width="280" height="20" as="geometry"/>
                </mxCell>
                <mxCell id="IUg-mft-xapzD2BrvqNs-16" value="К7" style="edgeStyle=orthogonalEdgeStyle;orthogonalLoop=1;jettySize=auto;html=1;exitX=0.25;exitY=1;exitDx=0;exitDy=0;curved=1;" parent="1" source="1RubFFUEzhwFRpHru7SJ-1" target="1RubFFUEzhwFRpHru7SJ-1" edge="1">
                    <mxGeometry relative="1" as="geometry">
                        <Array as="points">
                            <mxPoint x="-152" y="1090"/>
                            <mxPoint x="-220" y="1090"/>
                            <mxPoint x="-220" y="1050"/>
                        </Array>
                    </mxGeometry>
                </mxCell>
                <mxCell id="IUg-mft-xapzD2BrvqNs-17" value="К7: Кабина проехала очередной этаж" style="text;html=1;strokeColor=none;fillColor=none;align=left;verticalAlign=middle;whiteSpace=wrap;rounded=0;fontSize=14;" parent="1" vertex="1">
                    <mxGeometry x="479.9" y="1020" width="280" height="20" as="geometry"/>
                </mxCell>
                <mxCell id="IUg-mft-xapzD2BrvqNs-18" value="" style="endArrow=classic;html=1;entryX=0.25;entryY=0;entryDx=0;entryDy=0;" parent="1" target="2" edge="1">
                    <mxGeometry width="50" height="50" relative="1" as="geometry">
                        <mxPoint x="-72" y="890" as="sourcePoint"/>
                        <mxPoint x="-90" y="890" as="targetPoint"/>
                        <Array as="points"/>
                    </mxGeometry>
                </mxCell>
                <mxCell id="IUg-mft-xapzD2BrvqNs-19" value="" style="endArrow=classic;html=1;entryX=0.75;entryY=0;entryDx=0;entryDy=0;" parent="1" target="ytYb5CN6HiQMM8bSOuHx-1" edge="1">
                    <mxGeometry width="50" height="50" relative="1" as="geometry">
                        <mxPoint x="250" y="480" as="sourcePoint"/>
                        <mxPoint x="300" y="430" as="targetPoint"/>
                    </mxGeometry>
                </mxCell>
                <mxCell id="IUg-mft-xapzD2BrvqNs-20" value="" style="endArrow=classic;html=1;entryX=0.75;entryY=1;entryDx=0;entryDy=0;" parent="1" target="E6nvMdB4aJgWT5wThZRG-2" edge="1">
                    <mxGeometry width="50" height="50" relative="1" as="geometry">
                        <mxPoint x="610" y="610" as="sourcePoint"/>
                        <mxPoint x="610" y="580" as="targetPoint"/>
                    </mxGeometry>
                </mxCell>
                <mxCell id="IUg-mft-xapzD2BrvqNs-21" value="" style="endArrow=classic;html=1;" parent="1" edge="1">
                    <mxGeometry width="50" height="50" relative="1" as="geometry">
                        <mxPoint x="240" y="630" as="sourcePoint"/>
                        <mxPoint x="240" y="660" as="targetPoint"/>
                    </mxGeometry>
                </mxCell>
                <mxCell id="5jym0ZMFD4PkC4suiMIN-3" value="КЛ3: Движение(Id кл)" style="edgeStyle=orthogonalEdgeStyle;orthogonalLoop=1;jettySize=auto;html=1;curved=1;" parent="1" source="5jym0ZMFD4PkC4suiMIN-1" target="ytYb5CN6HiQMM8bSOuHx-2" edge="1">
                    <mxGeometry relative="1" as="geometry">
                        <Array as="points">
                            <mxPoint x="40" y="580"/>
                        </Array>
                    </mxGeometry>
                </mxCell>
                <mxCell id="5jym0ZMFD4PkC4suiMIN-1" value="3. Начало движения" style="rounded=0;whiteSpace=wrap;html=1;" parent="1" vertex="1">
                    <mxGeometry x="-20" y="540" width="120" height="20" as="geometry"/>
                </mxCell>
                <mxCell id="5jym0ZMFD4PkC4suiMIN-4" value="КЛ3" style="edgeStyle=orthogonalEdgeStyle;curved=1;orthogonalLoop=1;jettySize=auto;html=1;exitX=1;exitY=0.5;exitDx=0;exitDy=0;" parent="1" source="ytYb5CN6HiQMM8bSOuHx-2" target="ytYb5CN6HiQMM8bSOuHx-2" edge="1">
                    <mxGeometry x="0.0491" relative="1" as="geometry">
                        <Array as="points">
                            <mxPoint x="300" y="580"/>
                            <mxPoint x="300" y="610"/>
                            <mxPoint x="270" y="610"/>
                        </Array>
                        <mxPoint as="offset"/>
                    </mxGeometry>
                </mxCell>
                <mxCell id="2" value="1.&amp;nbsp; Лифт в неактивном состоянии" style="rounded=0;whiteSpace=wrap;html=1;" vertex="1" parent="1">
                    <mxGeometry x="-110" y="930" width="150" height="40" as="geometry"/>
                </mxCell>
                <mxCell id="5" value="4.&amp;nbsp; Лифт в движении" style="rounded=0;whiteSpace=wrap;html=1;" vertex="1" parent="1">
                    <mxGeometry x="-190" y="1030" width="150" height="40" as="geometry"/>
                </mxCell>
                <mxCell id="13" value="" style="edgeStyle=elbowEdgeStyle;elbow=vertical;endArrow=classic;html=1;curved=1;" edge="1" parent="1" source="1RubFFUEzhwFRpHru7SJ-29" target="5">
                    <mxGeometry width="50" height="50" relative="1" as="geometry">
                        <mxPoint x="-90" y="1280" as="sourcePoint"/>
                        <mxPoint x="-40" y="1230" as="targetPoint"/>
                        <Array as="points">
                            <mxPoint x="100" y="1220"/>
                        </Array>
                    </mxGeometry>
                </mxCell>
                <mxCell id="14" value="К4" style="edgeLabel;html=1;align=center;verticalAlign=middle;resizable=0;points=[];" vertex="1" connectable="0" parent="13">
                    <mxGeometry x="-0.1379" y="-2" relative="1" as="geometry">
                        <mxPoint as="offset"/>
                    </mxGeometry>
                </mxCell>
                <mxCell id="16" value="" style="edgeStyle=elbowEdgeStyle;elbow=vertical;endArrow=classic;html=1;curved=1;" edge="1" parent="1" source="1RubFFUEzhwFRpHru7SJ-29" target="2">
                    <mxGeometry width="50" height="50" relative="1" as="geometry">
                        <mxPoint x="390" y="1200" as="sourcePoint"/>
                        <mxPoint x="440" y="1150" as="targetPoint"/>
                        <Array as="points">
                            <mxPoint x="400" y="850"/>
                        </Array>
                    </mxGeometry>
                </mxCell>
                <mxCell id="17" value="К2" style="edgeLabel;html=1;align=center;verticalAlign=middle;resizable=0;points=[];" vertex="1" connectable="0" parent="16">
                    <mxGeometry x="-0.6659" y="32" relative="1" as="geometry">
                        <mxPoint x="22" y="53" as="offset"/>
                    </mxGeometry>
                </mxCell>
                <mxCell id="63" value="K3" style="edgeStyle=orthogonalEdgeStyle;orthogonalLoop=1;jettySize=auto;html=1;curved=1;entryX=1;entryY=0.75;entryDx=0;entryDy=0;" edge="1" parent="1" source="1RubFFUEzhwFRpHru7SJ-29" target="HDxr8kiUH-6mZuYNT8Sr-1">
                    <mxGeometry x="-0.7447" relative="1" as="geometry">
                        <Array as="points">
                            <mxPoint x="300" y="1180"/>
                        </Array>
                        <mxPoint as="offset"/>
                        <mxPoint x="185" y="1180" as="sourcePoint"/>
                        <mxPoint x="260" y="937.5" as="targetPoint"/>
                    </mxGeometry>
                </mxCell>
                <mxCell id="64" value="Состояния контроллера" style="text;html=1;strokeColor=none;fillColor=none;align=left;verticalAlign=middle;whiteSpace=wrap;rounded=0;fontStyle=4" vertex="1" parent="1">
                    <mxGeometry x="64.97000000000003" y="1340" width="200.03" height="20" as="geometry"/>
                </mxCell>
                <mxCell id="65" value="К1" style="edgeStyle=orthogonalEdgeStyle;rounded=0;orthogonalLoop=1;jettySize=auto;html=1;" edge="1" parent="1" source="67" target="68">
                    <mxGeometry relative="1" as="geometry">
                        <Array as="points">
                            <mxPoint x="34.97" y="1560"/>
                            <mxPoint x="34.97" y="1560"/>
                        </Array>
                    </mxGeometry>
                </mxCell>
                <mxCell id="66" value="K5" style="edgeStyle=orthogonalEdgeStyle;orthogonalLoop=1;jettySize=auto;html=1;curved=1;" edge="1" parent="1" source="67" target="76">
                    <mxGeometry x="0.4359" y="10" relative="1" as="geometry">
                        <Array as="points">
                            <mxPoint x="-45.03" y="1690"/>
                        </Array>
                        <mxPoint as="offset"/>
                    </mxGeometry>
                </mxCell>
                <mxCell id="67" value="4.&amp;nbsp; Лифт в движении" style="rounded=0;whiteSpace=wrap;html=1;" vertex="1" parent="1">
                    <mxGeometry x="-165.03" y="1550" width="150" height="40" as="geometry"/>
                </mxCell>
                <mxCell id="68" value="5. Определение следующего этажа" style="rounded=0;whiteSpace=wrap;html=1;" vertex="1" parent="1">
                    <mxGeometry x="64.94000000000001" y="1555" width="150" height="30" as="geometry"/>
                </mxCell>
                <mxCell id="69" value="К1" style="edgeStyle=orthogonalEdgeStyle;orthogonalLoop=1;jettySize=auto;html=1;curved=1;" edge="1" parent="1" source="71" target="68">
                    <mxGeometry relative="1" as="geometry">
                        <Array as="points">
                            <mxPoint x="259.97" y="1501"/>
                            <mxPoint x="164.97" y="1501"/>
                        </Array>
                    </mxGeometry>
                </mxCell>
                <mxCell id="70" value="К6" style="edgeStyle=orthogonalEdgeStyle;orthogonalLoop=1;jettySize=auto;html=1;curved=1;" edge="1" parent="1" source="71" target="73">
                    <mxGeometry relative="1" as="geometry">
                        <Array as="points">
                            <mxPoint x="364.97" y="1430"/>
                        </Array>
                    </mxGeometry>
                </mxCell>
                <mxCell id="71" value="3. Ожидание пассажиров" style="rounded=0;whiteSpace=wrap;html=1;" vertex="1" parent="1">
                    <mxGeometry x="184.96999999999997" y="1412.5" width="150" height="35" as="geometry"/>
                </mxCell>
                <mxCell id="72" value="К1" style="edgeStyle=orthogonalEdgeStyle;rounded=0;orthogonalLoop=1;jettySize=auto;html=1;exitX=0;exitY=0.25;exitDx=0;exitDy=0;" edge="1" parent="1" source="73">
                    <mxGeometry relative="1" as="geometry">
                        <mxPoint x="214.97" y="1560" as="targetPoint"/>
                    </mxGeometry>
                </mxCell>
                <mxCell id="73" value="4. Двери закрываются" style="rounded=0;whiteSpace=wrap;html=1;" vertex="1" parent="1">
                    <mxGeometry x="290" y="1550" width="150" height="40" as="geometry"/>
                </mxCell>
                <mxCell id="74" value="К1" style="edgeStyle=orthogonalEdgeStyle;rounded=0;orthogonalLoop=1;jettySize=auto;html=1;" edge="1" parent="1" source="76" target="68">
                    <mxGeometry relative="1" as="geometry">
                        <Array as="points">
                            <mxPoint x="144.97" y="1620"/>
                            <mxPoint x="144.97" y="1620"/>
                        </Array>
                    </mxGeometry>
                </mxCell>
                <mxCell id="75" value="K3" style="edgeStyle=orthogonalEdgeStyle;orthogonalLoop=1;jettySize=auto;html=1;curved=1;exitX=1;exitY=0.25;exitDx=0;exitDy=0;" edge="1" parent="1" source="76" target="71">
                    <mxGeometry x="-0.1496" y="15" relative="1" as="geometry">
                        <Array as="points">
                            <mxPoint x="274.97" y="1680"/>
                        </Array>
                        <mxPoint as="offset"/>
                    </mxGeometry>
                </mxCell>
                <mxCell id="76" value="2. Двери открываются" style="rounded=0;whiteSpace=wrap;html=1;" vertex="1" parent="1">
                    <mxGeometry x="49.97" y="1670" width="150" height="40" as="geometry"/>
                </mxCell>
                <mxCell id="77" value="К7" style="edgeStyle=orthogonalEdgeStyle;orthogonalLoop=1;jettySize=auto;html=1;exitX=0.25;exitY=1;exitDx=0;exitDy=0;curved=1;" edge="1" parent="1" source="67" target="67">
                    <mxGeometry relative="1" as="geometry">
                        <Array as="points">
                            <mxPoint x="-127.03" y="1610"/>
                            <mxPoint x="-195.03" y="1610"/>
                            <mxPoint x="-195.03" y="1570"/>
                        </Array>
                    </mxGeometry>
                </mxCell>
                <mxCell id="78" value="" style="endArrow=classic;html=1;entryX=0.25;entryY=0;entryDx=0;entryDy=0;" edge="1" parent="1" target="79">
                    <mxGeometry width="50" height="50" relative="1" as="geometry">
                        <mxPoint x="-67.03" y="1370" as="sourcePoint"/>
                        <mxPoint x="-65.03" y="1410" as="targetPoint"/>
                        <Array as="points"/>
                    </mxGeometry>
                </mxCell>
                <mxCell id="79" value="1.&amp;nbsp; Лифт в неактивном состоянии" style="rounded=0;whiteSpace=wrap;html=1;" vertex="1" parent="1">
                    <mxGeometry x="-105.03" y="1412.5" width="150" height="40" as="geometry"/>
                </mxCell>
                <mxCell id="80" value="4.&amp;nbsp; Лифт в движении" style="rounded=0;whiteSpace=wrap;html=1;" vertex="1" parent="1">
                    <mxGeometry x="-165.03" y="1550" width="150" height="40" as="geometry"/>
                </mxCell>
                <mxCell id="81" value="" style="edgeStyle=elbowEdgeStyle;elbow=vertical;endArrow=classic;html=1;curved=1;entryX=0.25;entryY=0;entryDx=0;entryDy=0;" edge="1" parent="1" source="79" target="68">
                    <mxGeometry width="50" height="50" relative="1" as="geometry">
                        <mxPoint x="324.97" y="1750" as="sourcePoint"/>
                        <mxPoint x="374.97" y="1700" as="targetPoint"/>
                    </mxGeometry>
                </mxCell>
                <mxCell id="82" value="К1" style="edgeLabel;html=1;align=center;verticalAlign=middle;resizable=0;points=[];" vertex="1" connectable="0" parent="81">
                    <mxGeometry x="-0.1409" relative="1" as="geometry">
                        <mxPoint as="offset"/>
                    </mxGeometry>
                </mxCell>
                <mxCell id="83" value="" style="edgeStyle=elbowEdgeStyle;elbow=horizontal;endArrow=classic;html=1;curved=1;" edge="1" parent="1" source="68" target="73">
                    <mxGeometry width="50" height="50" relative="1" as="geometry">
                        <mxPoint x="334.97" y="1730" as="sourcePoint"/>
                        <mxPoint x="384.97" y="1680" as="targetPoint"/>
                        <Array as="points">
                            <mxPoint x="244.97" y="1580"/>
                        </Array>
                    </mxGeometry>
                </mxCell>
                <mxCell id="84" value="К6" style="edgeLabel;html=1;align=center;verticalAlign=middle;resizable=0;points=[];" vertex="1" connectable="0" parent="83">
                    <mxGeometry x="0.0742" y="-1" relative="1" as="geometry">
                        <mxPoint as="offset"/>
                    </mxGeometry>
                </mxCell>
                <mxCell id="85" value="K5" style="edgeStyle=orthogonalEdgeStyle;orthogonalLoop=1;jettySize=auto;html=1;curved=1;" edge="1" parent="1" source="68" target="76">
                    <mxGeometry x="0.2941" relative="1" as="geometry">
                        <Array as="points">
                            <mxPoint x="124.97" y="1620"/>
                            <mxPoint x="124.97" y="1620"/>
                        </Array>
                        <mxPoint as="offset"/>
                        <mxPoint x="-35.03" y="1600" as="sourcePoint"/>
                        <mxPoint x="59.97" y="1700" as="targetPoint"/>
                    </mxGeometry>
                </mxCell>
                <mxCell id="86" value="" style="edgeStyle=elbowEdgeStyle;elbow=vertical;endArrow=classic;html=1;curved=1;" edge="1" parent="1" source="73" target="80">
                    <mxGeometry width="50" height="50" relative="1" as="geometry">
                        <mxPoint x="-65.03" y="1800" as="sourcePoint"/>
                        <mxPoint x="-15.03" y="1750" as="targetPoint"/>
                        <Array as="points">
                            <mxPoint x="124.97" y="1740"/>
                        </Array>
                    </mxGeometry>
                </mxCell>
                <mxCell id="87" value="К4" style="edgeLabel;html=1;align=center;verticalAlign=middle;resizable=0;points=[];" vertex="1" connectable="0" parent="86">
                    <mxGeometry x="-0.1379" y="-2" relative="1" as="geometry">
                        <mxPoint as="offset"/>
                    </mxGeometry>
                </mxCell>
                <mxCell id="88" value="" style="edgeStyle=elbowEdgeStyle;elbow=vertical;endArrow=classic;html=1;curved=1;" edge="1" parent="1" source="73" target="79">
                    <mxGeometry width="50" height="50" relative="1" as="geometry">
                        <mxPoint x="414.97" y="1720" as="sourcePoint"/>
                        <mxPoint x="464.97" y="1670" as="targetPoint"/>
                        <Array as="points">
                            <mxPoint x="424.97" y="1370"/>
                        </Array>
                    </mxGeometry>
                </mxCell>
                <mxCell id="89" value="К2" style="edgeLabel;html=1;align=center;verticalAlign=middle;resizable=0;points=[];" vertex="1" connectable="0" parent="88">
                    <mxGeometry x="-0.6659" y="32" relative="1" as="geometry">
                        <mxPoint x="22" y="53" as="offset"/>
                    </mxGeometry>
                </mxCell>
                <mxCell id="90" value="" style="edgeStyle=elbowEdgeStyle;elbow=horizontal;endArrow=classic;html=1;curved=1;" edge="1" parent="1" source="68" target="80">
                    <mxGeometry width="50" height="50" relative="1" as="geometry">
                        <mxPoint x="-165.03" y="1730" as="sourcePoint"/>
                        <mxPoint x="-115.03" y="1680" as="targetPoint"/>
                        <Array as="points">
                            <mxPoint x="24.97" y="1580"/>
                        </Array>
                    </mxGeometry>
                </mxCell>
                <mxCell id="91" value="К7" style="edgeLabel;html=1;align=center;verticalAlign=middle;resizable=0;points=[];" vertex="1" connectable="0" parent="90">
                    <mxGeometry x="0.3456" y="-1" relative="1" as="geometry">
                        <mxPoint as="offset"/>
                    </mxGeometry>
                </mxCell>
                <mxCell id="92" value="" style="edgeStyle=elbowEdgeStyle;elbow=vertical;endArrow=classic;html=1;curved=1;entryX=0.25;entryY=1;entryDx=0;entryDy=0;exitX=0.5;exitY=0;exitDx=0;exitDy=0;" edge="1" parent="1" source="68" target="71">
                    <mxGeometry width="50" height="50" relative="1" as="geometry">
                        <mxPoint x="104.97" y="1500" as="sourcePoint"/>
                        <mxPoint x="154.97" y="1450" as="targetPoint"/>
                        <Array as="points">
                            <mxPoint x="194.97" y="1490"/>
                        </Array>
                    </mxGeometry>
                </mxCell>
                <mxCell id="93" value="К3" style="edgeLabel;html=1;align=center;verticalAlign=middle;resizable=0;points=[];" vertex="1" connectable="0" parent="92">
                    <mxGeometry x="-0.0104" y="-3" relative="1" as="geometry">
                        <mxPoint as="offset"/>
                    </mxGeometry>
                </mxCell>
                <mxCell id="94" value="K3" style="edgeStyle=orthogonalEdgeStyle;orthogonalLoop=1;jettySize=auto;html=1;curved=1;entryX=1;entryY=0.75;entryDx=0;entryDy=0;" edge="1" parent="1" source="73" target="76">
                    <mxGeometry x="-0.7447" relative="1" as="geometry">
                        <Array as="points">
                            <mxPoint x="324.97" y="1700"/>
                        </Array>
                        <mxPoint as="offset"/>
                        <mxPoint x="209.97" y="1700" as="sourcePoint"/>
                        <mxPoint x="284.97" y="1457.5" as="targetPoint"/>
                    </mxGeometry>
                </mxCell>
            </root>
        </mxGraphModel>
    </diagram>
</mxfile>